<?xml version="1.0" standalone="no"?>
<!DOCTYPE svg PUBLIC "-//W3C//DTD SVG 1.1//EN" "http://www.w3.org/Graphics/SVG/1.1/DTD/svg11.dtd" >
<svg xmlns="http://www.w3.org/2000/svg">
<metadata>Generated by IcoMoon</metadata>
<defs>
<font id="icomoon" horiz-adv-x="1024">
<font-face units-per-em="1024" ascent="960" descent="-64" />
<missing-glyph horiz-adv-x="1024" />
<glyph unicode="&#x20;" horiz-adv-x="512" d="" />
<glyph unicode="&#x67;" glyph-name="call_bar_yellow" d="M1017.020 658.235c-2.885 8.981-5.724 17.962-8.655 26.942-11.675 33.912-30.708 62.72-55.297 85.646l-0.123 0.114c-17.056 15.905-36.403 29.698-57.41 40.763l-1.454 0.698c-10.622 5.945-23.308 9.446-36.812 9.446-22.616 0-42.938-9.82-56.935-25.428l-0.063-0.072c-25.221-29.409-49.79-59.236-74.452-88.971-14.332-17.124-28.478-34.341-42.857-51.186-10.415-10.849-16.828-25.609-16.828-41.866 0-21.463 11.178-40.316 28.030-51.054l0.245-0.146c20.754-15.449 42.857-29.409 64.541-43.88 6.049-4.002 12.61-7.445 18.892-11.121-23.624-61.491-53.137-114.643-88.912-162.871l1.291 1.821c-50.778-64.388-111.365-118.335-180.005-160.431l-2.962-1.689c-17.776 12.099-35.737 24.43-53.792 36.621-9.307 6.189-18.194 12.471-27.594 18.334-12.237 8.296-27.329 13.244-43.578 13.244s-31.341-4.948-43.854-13.42l0.276 0.176c-10.090-7.751-18.811-16.56-26.227-26.409l-0.251-0.348c-35.551-41.879-70.59-84.597-106.141-126.709-8.78-11.008-14.678-24.675-16.348-39.619l-0.032-0.353 2.932-18.148c4.332-8.773 9.243-16.332 14.917-23.242l-0.166 0.208c20.34-19.729 44.348-35.815 70.882-47.12l1.523-0.576c29.491-13.459 63.965-21.304 100.272-21.304 20.177 0 39.788 2.423 58.557 6.994l-1.688-0.347c61.563 14.938 115.764 37.325 165.364 66.667l-2.779-1.521c41.988 24.427 78.226 50.126 111.967 78.685l-1.126-0.929c43.263 36.177 82.020 74.565 117.352 115.963l1.121 1.346c32.464 37.558 64.408 78.829 94.093 121.78l3.16 4.835c32.593 45.512 60.036 97.846 79.758 153.82l1.348 4.391c10.286 29.8 16.346 64.147 16.611 99.873l0.001 0.126q0 14.332 0 28.711-3.536 20.8-6.794 41.554zM335.78 284.717h1.908c25.442 1.009 45.685 21.878 45.685 47.475 0 0.651-0.013 1.298-0.039 1.942l0.003-0.092c-0.583 5.957-0.916 12.876-0.916 19.874 0 72.066 35.291 135.889 89.534 175.129l0.632 0.435c27.578 20 60.012 35.309 95.071 43.949l1.903 0.397c22.213 4.282 38.764 23.568 38.764 46.719 0 26.253-21.282 47.535-47.535 47.535-3.102 0-6.134-0.297-9.070-0.864l0.299 0.048c-151.352-28.877-264.207-160.171-264.207-317.823 0-6.645 0.2-13.242 0.596-19.788l-0.043 0.899c0.952-25.476 21.804-45.775 47.411-45.835h0.006zM48.115 239.533h1.908c25.442 1.009 45.685 21.878 45.685 47.475 0 0.651-0.013 1.298-0.039 1.942l0.003-0.092c-1.323 13.932-2.077 30.124-2.077 46.492 0 174.425 85.649 328.845 217.184 423.499l1.549 1.061c66.090 48.112 143.971 84.715 228.218 104.96l4.446 0.902c22.213 4.282 38.764 23.568 38.764 46.719 0 26.253-21.282 47.535-47.535 47.535-3.102 0-6.134-0.297-9.070-0.864l0.299 0.048c-103.149-23.936-193.799-66.283-272.718-123.766l2.13 1.478c-156.979-113.275-257.964-295.692-257.964-501.696 0-17.614 0.738-35.056 2.186-52.296l-0.152 2.252c1.023-25.325 21.723-45.489 47.169-45.649h0.016z" />
<glyph unicode="&#xe900;" glyph-name="arrow_down_sign_to_navigate" horiz-adv-x="1796" d="M898.092-63.918c-0.043 0-0.094 0-0.144 0-34.678 0-66.070 14.075-88.773 36.823l-772.432 772.432c-21.89 22.611-35.382 53.468-35.382 87.476 0 69.492 56.334 125.826 125.826 125.826 34.008 0 64.865-13.492 87.51-35.415l-0.034 0.033 683.429-683.429 683.429 683.429c22.611 21.89 53.468 35.382 87.476 35.382 69.492 0 125.826-56.334 125.826-125.826 0-34.008-13.492-64.865-35.415-87.51l0.033 0.034-772.348-772.43c-22.705-22.751-54.096-36.825-88.775-36.825-0.079 0-0.159 0-0.238 0h0.012z" />
<glyph unicode="&#xe901;" glyph-name="bar_chart_yellow" horiz-adv-x="1059" d="M446.032 321.36h167.521v-385.264h-167.521v385.264zM824.554 572.617h167.521v-636.521h-167.521v636.521zM67.461 153.84h167.521v-217.743h-167.521v217.743zM1054.528 929.761c-4.027 4.833-9.916 7.995-16.55 8.376l-0.062 0.003-273.744 21.813c-0.129 0.003-0.281 0.004-0.434 0.004-12.991 0-23.535-10.478-23.642-23.444v-0.010c-0.086-0.768-0.135-1.659-0.135-2.562 0-12.403 9.23-22.649 21.196-24.245l0.125-0.014 213.265-16.757-378.089-328.3-278.655 242.879c-3.61 3.838-8.722 6.228-14.392 6.228-6.273 0-11.863-2.926-15.479-7.487l-0.031-0.041-0.337-0.385-281.111-298.157c-4.022-4.701-6.469-10.852-6.469-17.575s2.447-12.875 6.5-17.613l-0.031 0.037c4.027-4.833 9.916-7.995 16.55-8.376l0.062-0.003c6.125 0.813 11.413 3.886 15.088 8.339l0.032 0.040 266.184 283.085 276.778-241.193c3.848-4.088 9.294-6.634 15.335-6.634 5.179 0 9.921 1.871 13.587 4.974l-0.031-0.025 400.769 346.694-16.612-226.314c-0.086-0.77-0.135-1.664-0.135-2.568 0-12.359 9.184-22.573 21.1-24.19l0.126-0.014h1.589c0.202-0.007 0.439-0.010 0.677-0.010 12.038 0 21.819 9.667 22.003 21.662v0.017l19.646 283.085c0.169 1.1 0.266 2.369 0.266 3.66 0 5.654-1.853 10.876-4.985 15.091l0.048-0.068z" />
<glyph unicode="&#xe902;" d="M93.091 960h837.818c51.413 0 93.091-41.678 93.091-93.091v-837.818c0-51.413-41.678-93.091-93.091-93.091h-837.818c-51.413 0-93.091 41.678-93.091 93.091v837.818c0 51.413 41.678 93.091 93.091 93.091z" />
<glyph unicode="&#xe903;" d="M730.996 571.439l-258.234-258.188c-1.053-1.056-2.51-1.709-4.119-1.709s-3.066 0.653-4.119 1.709v0l-146.618 146.618c-1.056 1.053-1.709 2.51-1.709 4.119s0.653 3.066 1.709 4.119v0l35.561 35.607c1.053 1.056 2.51 1.709 4.119 1.709s3.066-0.653 4.119-1.709v0l107.055-107.055 218.484 218.484c1.053 1.056 2.51 1.709 4.119 1.709s3.066-0.653 4.119-1.709v0l35.607-35.607c0.987-1.040 1.594-2.45 1.594-4.001 0-1.598-0.645-3.046-1.688-4.098v0z" />
<glyph unicode="&#xe904;" glyph-name="comment_icon" horiz-adv-x="1542" d="M404.441 794.088v0c0-34.841-28.244-63.084-63.084-63.084v0h-278.272c-34.841 0-63.084 28.244-63.084 63.084v0 0c0 34.841 28.244 63.084 63.084 63.084v0h279.674c34.232-0.785 61.683-28.721 61.683-63.069 0-0.005 0-0.011 0-0.016v0.001zM342.829 604.835h-279.744c-34.841 0-63.084-28.244-63.084-63.084v0 0c0-34.841 28.244-63.084 63.084-63.084v0h279.674c34.841 0 63.084 28.244 63.084 63.084v0 0c-0.918 34.369-28.62 61.973-62.942 62.733l-0.072 0.001zM342.829 353.619h-279.744c-34.841 0-63.084-28.244-63.084-63.084v0 0c0-34.841 28.244-63.084 63.084-63.084v0h279.674c34.841 0 63.084 28.244 63.084 63.084v0 0c-0.918 34.369-28.62 61.973-62.942 62.733l-0.072 0.001zM1542.063 822.546v-560.75c-0.040-75.898-61.556-137.414-137.45-137.454h-379.211c0.001-0.021 0.002-0.047 0.002-0.072 0-0.852-0.69-1.542-1.542-1.542-0.025 0-0.050 0.001-0.075 0.002h0.004l-176.987-178.529c-5.025-4.812-11.856-7.774-19.378-7.774-15.014 0-27.272 11.801-28.003 26.634l-0.003 0.065v159.463h-140.538c-75.898 0.040-137.414 61.556-137.454 137.45v562.507c0.040 75.898 61.556 137.414 137.45 137.454h745.732c75.898-0.040 137.414-61.556 137.454-137.45v-0.004zM908.485 541.33c0 33.176-26.894 60.070-60.070 60.070s-60.070-26.894-60.070-60.070c0-33.176 26.894-60.070 60.070-60.070v0c0.021 0 0.045 0 0.070 0 33.137 0 60 26.863 60 60 0 0.025 0 0.049 0 0.074v-0.004zM1091.781 541.33c0 33.176-26.894 60.070-60.070 60.070s-60.070-26.894-60.070-60.070c0-33.176 26.894-60.070 60.070-60.070v0c0.021 0 0.045 0 0.070 0 33.137 0 60 26.863 60 60 0 0.025 0 0.049 0 0.074v-0.004zM1276.618 541.33c0 33.176-26.894 60.070-60.070 60.070s-60.070-26.894-60.070-60.070c0-33.176 26.894-60.070 60.070-60.070v0c0.021 0 0.045 0 0.070 0 33.137 0 60 26.863 60 60 0 0.025 0 0.049 0 0.074v-0.004z" />
<glyph unicode="&#xe905;" glyph-name="cross_black" d="M512 960c-282.77 0-512-229.23-512-512s229.23-512 512-512c282.77 0 512 229.23 512 512v0c0.001 0.443 0.002 0.967 0.002 1.492 0 281.947-228.563 510.511-510.511 510.511-0.524 0-1.049-0.001-1.573-0.002h0.081zM586.473 438.691l174.545-174.545c4.309-4.104 6.989-9.884 6.989-16.291s-2.68-12.187-6.98-16.282l-32.591-32.591c-4.246-4.083-9.939-6.69-16.236-6.98l-0.055-0.002c-0.175-0.005-0.382-0.008-0.589-0.008-6.224 0-11.819 2.69-15.686 6.972l-0.016 0.018-174.545 174.545c-2.055 2.148-4.944 3.484-8.145 3.484s-6.091-1.335-8.141-3.48l-174.549-174.549c-4.246-4.083-9.939-6.69-16.236-6.98l-0.055-0.002c-0.175-0.005-0.382-0.008-0.589-0.008-6.224 0-11.819 2.69-15.686 6.972l-0.016 0.018-32.582 32.582c-4.309 4.104-6.989 9.884-6.989 16.291s2.68 12.187 6.98 16.282l174.554 174.554c2.148 2.055 3.484 4.944 3.484 8.145s-1.335 6.091-3.48 8.141l-174.549 174.549c-4.309 4.104-6.989 9.884-6.989 16.291s2.68 12.187 6.98 16.282l32.591 32.591c4.104 4.309 9.884 6.989 16.291 6.989s12.187-2.68 16.282-6.98l174.554-174.554c2.055-2.148 4.944-3.484 8.145-3.484s6.091 1.335 8.141 3.48l174.549 174.549c4.246 4.083 9.939 6.69 16.236 6.98l0.055 0.002c0.175 0.005 0.382 0.008 0.589 0.008 6.224 0 11.819-2.69 15.686-6.972l0.016-0.018 32.582-32.582c4.309-4.104 6.989-9.884 6.989-16.291s-2.68-12.187-6.98-16.282l-174.554-174.554c-4.655-2.327-4.655-11.636 0-16.291z" />
<glyph unicode="&#xe906;" glyph-name="Home_yellow" d="M93.417 519.215l418.583 310.97 418.537-310.97c9.665-7.225 21.85-11.568 35.049-11.568 18.899 0 35.719 8.904 46.492 22.747l0.099 0.132c7.297 9.472 11.695 21.505 11.695 34.565 0 18.724-9.040 35.336-22.993 45.711l-0.152 0.108-454.516 337.827c-9.423 7.036-21.3 11.266-34.164 11.266s-24.742-4.229-34.316-11.374l0.152 0.108-454.609-337.827c-14.132-10.481-23.191-27.109-23.191-45.853 0-13.086 4.416-25.142 11.839-34.756l-0.098 0.132c10.873-13.974 27.692-22.879 46.591-22.879 13.199 0 25.385 4.343 35.204 11.679l-0.155-0.111zM843.497-64c0.139-0.002 0.303-0.002 0.468-0.002 25.158 0 45.583 20.263 45.845 45.359v481.584l-377.763 279.273-377.856-279.273v-481.559c0.262-25.121 20.687-45.384 45.845-45.384 0.164 0 0.329 0.001 0.493 0.003h166.515v261.167c1.558 89.904 74.805 162.186 164.934 162.186s163.376-72.283 164.932-162.040l0.002-0.146v-261.167z" />
<glyph unicode="&#xe907;" glyph-name="image_upload" d="M813.615 478.813c25.706 0 46.545-20.839 46.545-46.545s-20.839-46.545-46.545-46.545v0h-36.631c-25.706 0-46.545 20.839-46.545 46.545s20.839 46.545 46.545 46.545v0zM512.605 476.858c106.043-1.105 191.581-87.327 191.581-193.526 0-106.887-86.649-193.536-193.536-193.536-106.884 0-193.53 86.643-193.536 193.526v0c0.315 106.957 87.093 193.541 194.094 193.541 0.491 0 0.982-0.002 1.472-0.005h-0.075zM614.4 283.322c0.008 0.484 0.013 1.056 0.013 1.629 0 56.4-45.721 102.121-102.121 102.121s-102.121-45.721-102.121-102.121c0-56.4 45.721-102.121 102.121-102.121 0.11 0 0.22 0 0.33 0.001h-0.017c0.194-0.001 0.424-0.002 0.654-0.002 55.632 0 100.773 44.914 101.141 100.459v0.035zM545.513 946.362l125.999-125.999c7.469-8.225 12.042-19.199 12.042-31.241 0-25.706-20.839-46.545-46.545-46.545-12.053 0-23.036 4.582-31.303 12.098l0.038-0.034-46.545 46.545v-199.587c0-25.706-20.839-46.545-46.545-46.545s-46.545 20.839-46.545 46.545v0 199.633l-47.151-46.545c-8.329-8.602-19.983-13.941-32.884-13.941s-24.555 5.339-32.873 13.929l-0.012 0.012c-8.392 8.418-13.582 20.034-13.582 32.861 0 12.804 5.17 24.401 13.537 32.817l-0.002-0.002 126.604 125.905c3.281 2.969 6.94 5.634 10.864 7.89l0.307 0.162c3.578 2.166 7.726 3.881 12.134 4.922l0.294 0.058c3.072 0 6.191 0.605 9.309 0.605s6.191-0.605 9.309-0.605c4.702-1.1 8.85-2.815 12.622-5.089l-0.195 0.109c4.215-2.391 7.859-5.027 11.183-8.011l-0.058 0.052zM859.555-64h-694.458c-90.983 0.368-164.649 73.985-165.097 164.914v382.135c0.265 90.826 73.954 164.352 164.817 164.352 0.098 0 0.197 0 0.295 0h130.917c25.706 0 46.545-20.839 46.545-46.545s-20.839-46.545-46.545-46.545v0h-130.932c-0.029 0-0.062 0-0.096 0-39.487 0-71.541-31.826-71.91-71.226v-382.127c0.644-39.497 32.505-71.342 71.947-71.959l0.059-0.001h694.458c39.408 0.523 71.174 32.502 71.354 71.942v382.109c0 0.097 0.001 0.212 0.001 0.327 0 39.202-31.78 70.982-70.982 70.982-0.131 0-0.262 0-0.393-0.001h-131.564c-25.706 0-46.545 20.839-46.545 46.545s20.839 46.545 46.545 46.545v0h131.584c0.041 0 0.091 0 0.14 0 90.743 0 164.305-73.562 164.305-164.305 0-0.033 0-0.066 0-0.098v0.005-382.045c-0.131-90.88-73.609-164.555-164.402-165.003h-0.043z" />
<glyph unicode="&#xe908;" glyph-name="image" d="M303.709 533.504c61.695 0 111.709 50.014 111.709 111.709s-50.014 111.709-111.709 111.709c-61.695 0-111.709-50.014-111.709-111.709v0c0-61.695 50.014-111.709 111.709-111.709v0zM875.334 441.018c-7.217 5.319-16.286 8.513-26.1 8.513-11.473 0-21.926-4.365-29.79-11.524l0.036 0.032-109.335-98.397c-17.104-15.248-39.784-24.565-64.639-24.565-31.204 0-58.979 14.685-76.789 37.521l-0.163 0.217-24.297 31.372c-18.11 22.897-45.892 37.457-77.074 37.457-23.077 0-44.292-7.975-61.039-21.319l0.199 0.153-243.433-198.563c-20.207-16.59-32.998-41.57-33.001-69.538v0-35.607c0-16.503 13.379-29.882 29.882-29.882v0h707.491c14.55 0 26.345 11.795 26.345 26.345v0 311.622c0.001 0.112 0.002 0.244 0.002 0.376 0 14.744-7.3 27.782-18.483 35.698l-0.136 0.092zM955.718 47.709c-0.026-23.973-19.454-43.4-43.424-43.427h-800.584c-23.973 0.026-43.4 19.454-43.427 43.424v800.585c0.026 23.973 19.454 43.4 43.424 43.427h800.584c23.984 0 43.427-19.443 43.427-43.427v0zM912.291 960h-800.582c-61.695 0-111.709-50.014-111.709-111.709v0-800.582c0-61.695 50.014-111.709 111.709-111.709v0h800.582c61.695 0 111.709 50.014 111.709 111.709v0 800.582c0 61.695-50.014 111.709-111.709 111.709v0z" />
<glyph unicode="&#xe909;" glyph-name="language" d="M512 960c-282.77 0-512-229.23-512-512s229.23-512 512-512c282.77 0 512 229.23 512 512v0c0 282.77-229.23 512-512 512v0zM954.787 268.614l-145.594-25.135c15.868 55.891 25.576 120.27 26.8 186.722l0.010 0.716h153.6c-2.096-58.973-14.625-114.455-35.787-165.451l1.157 3.147zM34.537 430.918h153.6c1.234-67.168 10.942-131.547 28.096-192.815l-1.286 5.377-145.594 25.135c-20.005 47.849-32.534 103.332-34.606 161.477l-0.023 0.827zM69.167 627.34l145.594 25.135c-15.868-55.891-25.576-120.27-26.8-186.722l-0.010-0.716h-153.414c2.096 58.973 14.625 114.455 35.787 165.451l-1.157-3.147zM529.036 685.94c65.259-0.856 128.469-6.9 190.027-17.739l-7.056 1.029 60.23-10.38c17.63-57.77 28.361-124.299 29.593-193.147l0.009-0.669h-272.756zM717.824 702.883c-56.244 10.124-121.466 16.353-187.983 17.214l-0.805 0.008v204.8c97.745-9.309 182.831-99.002 231.005-229.376zM494.918 720.105c-67.309-0.871-132.515-7.1-196.013-18.283l7.271 1.061-42.263-7.261c48.175 130.374 133.167 220.020 231.005 229.376zM311.855 669.277c54.485 9.809 117.679 15.852 182.127 16.702l0.797 0.008v-220.905h-272.663c1.242 69.516 11.973 136.046 30.946 199.002l-1.343-5.187zM221.975 430.964h272.803v-220.905c-65.232 0.842-128.429 6.869-189.974 17.69l7.050-1.027-60.23 10.38c-17.63 57.77-28.361 124.299-29.593 193.147l-0.009 0.669zM305.99 193.117c56.211-10.133 121.425-16.394 187.932-17.306l0.856-0.009v-204.8c-97.745 9.309-182.831 99.002-231.005 229.376zM528.896 175.802c67.349 0.923 132.548 7.184 196.044 18.382l-7.302-1.067 42.263 7.308c-48.175-130.327-133.167-220.020-231.005-229.376zM711.82 226.723c-54.485-9.809-117.679-15.852-182.127-16.702l-0.797-0.008v220.905h272.803c-1.242-69.516-11.973-136.046-30.946-199.002l1.343 5.187zM835.817 465.036c-1.234 67.168-10.942 131.547-28.096 192.815l1.286-5.377 145.594-25.135c20.005-47.849 32.534-103.332 34.606-161.477l0.023-0.827zM937.379 665.181l-139.636 24.064c-26.455 84.653-73.485 156.459-135.344 212.101l-0.429 0.379c120.695-41.101 217.543-125.351 274.103-233.933l1.26-2.658zM361.798 901.539c-62.288-56.021-109.319-127.827-134.87-209.146l-0.903-3.334-139.636-24.064c57.84 111.229 154.703 195.464 272.030 235.541l3.379 1.003zM86.435 231.005l139.636-24.064c26.455-84.653 73.485-156.459 135.344-212.101l0.429-0.379c-120.695 41.101-217.543 125.351-274.103 233.933l-1.26 2.658zM662.156-5.585c62.288 56.021 109.319 127.827 134.87 209.146l0.903 3.334 139.636 24.064c-57.82-111.239-154.668-195.489-271.984-235.587l-3.379-1.004z" />
<glyph unicode="&#xe90a;" glyph-name="Menu_bar_yellow" horiz-adv-x="993" d="M0-8.899v913.707c0 0 0 0 0 0 0 30.481 24.71 55.192 55.192 55.192 0.032 0 0.063 0 0.095 0h266.25c-13.4-23.406-21.301-51.449-21.301-81.336 0-0.201 0-0.402 0.001-0.602v0.031-28.566h-189.763v-769.433l402.632 199.195c7.028 3.481 15.303 5.517 24.053 5.517 30.47 0 55.172-24.691 55.192-55.156v-0.002c-0.144-1.798-0.226-3.894-0.226-6.008 0-44.239 35.863-80.102 80.102-80.102s80.102 35.863 80.102 80.102c0 2.114-0.082 4.21-0.243 6.283l0.017-0.275v146.982h111.421v-146.801c-0.145-92.94-66.687-170.296-154.721-187.181l-1.196-0.191-652.326-106.502c-30.466 0-55.166 24.684-55.192 55.144v0.002zM385.484 543.784v334.308c0 45.236 36.671 81.907 81.907 81.907v0h443.518c45.236 0 81.907-36.671 81.907-81.907v0-334.263c0-45.236-36.671-81.907-81.907-81.907v0h-225.64l-0.542-0.767-105.645-105.554c-3.013-3.054-7.198-4.945-11.824-4.945-9.172 0-16.607 7.435-16.607 16.607 0 0.025 0 0.050 0 0.075v-0.004 94.498h-83.261c-45.236 0-81.907 36.671-81.907 81.907 0 0.032 0 0.064 0 0.095v-0.005zM610.672 819.426c0-16.051 13.012-29.062 29.062-29.062v0h190.44c16.063 0 29.085 13.022 29.085 29.085s-13.022 29.085-29.085 29.085h-190.44c-0.013 0-0.029 0-0.045 0-16.035 0-29.037-12.986-29.062-29.015v-0.002zM610.672 715.271c0-0.040 0-0.088 0-0.135 0-16.051 13.012-29.062 29.062-29.062 0 0 0 0 0 0h190.44c16.063 0 29.085 13.022 29.085 29.085s-13.022 29.085-29.085 29.085h-190.44c-0.013 0-0.029 0-0.045 0-16.003 0-28.985-12.935-29.062-28.92v-0.007zM610.672 611.115c0-16.051 13.012-29.062 29.062-29.062v0h190.44c16.063 0 29.085 13.022 29.085 29.085s-13.022 29.085-29.085 29.085h-190.44c-0.013 0-0.029 0-0.045 0-16.051 0-29.062-13.012-29.062-29.062v0zM519.153 819.516c0-16.051 13.012-29.062 29.062-29.062s29.062 13.012 29.062 29.062c0 16.051-13.012 29.062-29.062 29.062v0c-16.051 0-29.062-13.012-29.062-29.062v0zM519.153 715.361c0-16.051 13.012-29.062 29.062-29.062s29.062 13.012 29.062 29.062c0 16.051-13.012 29.062-29.062 29.062v0c-16.051 0-29.062-13.012-29.062-29.062v0zM519.153 611.205c0-16.051 13.012-29.062 29.062-29.062s29.062 13.012 29.062 29.062c0 16.051-13.012 29.062-29.062 29.062v0c-16.051 0-29.062-13.012-29.062-29.062v0z" />
<glyph unicode="&#xe90b;" glyph-name="more" horiz-adv-x="3840" d="M511.923 960c-282.727 0-511.923-229.196-511.923-511.923s229.196-511.923 511.923-511.923c282.727 0 511.923 229.196 511.923 511.923v0c-0.351 282.586-229.337 511.572-511.889 511.923h-0.034zM3327.807 960c-282.727 0-511.923-229.196-511.923-511.923s229.196-511.923 511.923-511.923c282.727 0 511.923 229.196 511.923 511.923v0c-0.351 282.586-229.337 511.572-511.889 511.923h-0.034zM1919.865 960c-282.727 0-511.923-229.196-511.923-511.923s229.196-511.923 511.923-511.923c282.727 0 511.923 229.196 511.923 511.923v0c-0.351 282.586-229.337 511.572-511.889 511.923h-0.034z" />
<glyph unicode="&#xe90c;" glyph-name="notifcation" horiz-adv-x="870" d="M435.189-64c56.439 0.268 102.12 45.949 102.388 102.362v0.026h-204.776c0.268-56.439 45.949-102.12 102.362-102.388h0.026zM767.99 243.204v281.567c0.002 0.407 0.003 0.889 0.003 1.371 0 155.917-108.301 286.538-253.781 320.741l-2.232 0.442v35.844c0 42.411-34.381 76.791-76.791 76.791s-76.791-34.381-76.791-76.791v0-35.844c-147.711-34.645-256.013-165.266-256.013-321.183 0-0.482 0.001-0.964 0.003-1.446v0.075-281.607l-102.388-102.388v-51.194h870.378v51.194z" />
<glyph unicode="&#xe90d;" glyph-name="noun_add" d="M837.539 960h-651.078c-102.958-0.053-186.408-83.503-186.461-186.456v-651.083c0.053-102.958 83.503-186.408 186.456-186.461h651.083c102.958 0.053 186.408 83.503 186.461 186.456v651.083c-0.447 102.799-83.662 186.014-186.418 186.461h-0.043zM780.381 393.030h-213.411v-213.411c0-30.359-24.611-54.97-54.97-54.97s-54.97 24.611-54.97 54.97v0 213.411h-213.411c-30.359 0-54.97 24.611-54.97 54.97s24.611 54.97 54.97 54.97v0h213.411v213.411c0 30.359 24.611 54.97 54.97 54.97s54.97-24.611 54.97-54.97v0-213.411h213.411c30.359 0 54.97-24.611 54.97-54.97s-24.611-54.97-54.97-54.97v0z" />
<glyph unicode="&#xe90e;" glyph-name="noun_menu" horiz-adv-x="1207" d="M115.303 719.886h553.84c154.884 0 156.39 240.114 1.764 240.114h-553.84c-154.884 0-156.433-240.114-1.764-240.114zM115.346 336.806h553.84c146.28 0 147.699 226.776 1.635 226.776h-553.84c-146.28 0-147.699-226.776-1.635-226.776zM115.303-64.043h553.84c154.884 0 156.39 240.157 1.764 240.157h-553.84c-154.884 0-156.433-240.157-1.764-240.157zM1010.577 544.695v-189.088l149.807 94.651zM963.896 544.523v-188.873c0.363-25.717 21.295-46.424 47.063-46.424 8.527 0 16.525 2.268 23.423 6.233l-0.229-0.121 149.807 94.651c13.61 8.471 22.535 23.35 22.535 40.313s-8.925 31.842-22.335 40.197l-0.2 0.116-149.807 94.651c-51.112 32.225-97.878-48.573-47.326-80.626l149.807-94.651v80.497l-149.807-94.651 70.257-40.313v189.002c-1.862 24.267-22.011 43.253-46.594 43.253s-44.732-18.985-46.585-43.094l-0.010-0.159z" />
<glyph unicode="&#xe90f;" glyph-name="noun_order" horiz-adv-x="834" d="M751.603-64h-611.215c-0.238-0.002-0.519-0.004-0.8-0.004-45.164 0-81.776 36.612-81.776 81.776 0 0.281 0.001 0.562 0.004 0.843v-0.043 313.835h33.021v-313.797c-0.005-0.262-0.008-0.571-0.008-0.88 0-26.885 21.794-48.679 48.679-48.679 0.309 0 0.618 0.003 0.926 0.009l-0.046-0.001h611.215c0.182-0.002 0.398-0.004 0.614-0.004 26.885 0 48.679 21.794 48.679 48.679 0 0.295-0.003 0.589-0.008 0.882l0.001-0.044v858.856c0.005 0.261 0.008 0.568 0.008 0.876 0 26.885-21.794 48.679-48.679 48.679-0.216 0-0.432-0.001-0.647-0.004h-611.182c-0.262 0.005-0.571 0.008-0.88 0.008-26.885 0-48.679-21.794-48.679-48.679 0-0.309 0.003-0.618 0.009-0.926l-0.001 0.046v-280.775h-33.021v280.775c-0.002 0.238-0.004 0.519-0.004 0.8 0 45.164 36.612 81.776 81.776 81.776 0.281 0 0.562-0.001 0.843-0.004h611.172c0.238 0.002 0.519 0.004 0.8 0.004 45.164 0 81.776-36.612 81.776-81.776 0-0.281-0.001-0.562-0.004-0.843v0.043-858.856c0.002-0.238 0.004-0.519 0.004-0.8 0-45.164-36.612-81.776-81.776-81.776-0.281 0-0.562 0.001-0.843 0.004h0.043zM622.665 811.348h-353.452c-25.316 0.56-45.693 20.936-46.252 46.2l-0.001 0.053v85.87h33.021v-85.87c0.492-7.101 6.13-12.739 13.187-13.229l0.044-0.002h353.452c7.101 0.492 12.739 6.13 13.229 13.187l0.002 0.044v85.87h33.021v-85.87c-0.56-25.316-20.936-45.693-46.2-46.252l-0.053-0.001zM768.019 35.102h-644.123v231.262h33.021v-198.203h578.080v776.246h-82.572v33.021h115.631zM156.917 547.102h-33.021v330.326h115.631v-33.021h-82.61zM328.658 228.339l-105.698 34.689-222.96 222.96 69.379 69.379 222.96-222.96zM241.12 291.121l34.689-11.374-11.374 36.32-195.057 194.715-23.126-23.126zM91.33 510.517l23.35-23.35-35.038-35.038-23.35 23.35 35.038 35.038zM256.095 347.003l23.35-23.35-46.726-46.726-23.35 23.35 46.726 46.726zM239.489 712.246h396.369v-33.021h-396.369v33.021zM239.489 629.674h297.305v-33.021h-297.305v33.021zM239.489 547.102h379.877v-33.021h-379.877v33.021z" />
<glyph unicode="&#xe910;" glyph-name="Offers_bar_yellow" horiz-adv-x="1246" d="M1126.955 647.85c-14.788-42.944-29.465-77.988-46.022-111.946l2.586 5.876c4.447-12.465 7.017-26.844 7.017-41.824 0-23.661-6.412-45.825-17.594-64.847l0.327 0.601c-5.993-11.728-12.369-21.779-19.555-31.18l0.357 0.486c-19.198-25.541-44.738-53.686-72.827-84.38-1.303-2.548-3.851-3.851-6.399-6.399-3.663-4.549-9.232-7.435-15.475-7.435-4.257 0-8.2 1.342-11.431 3.626l0.062-0.042c-5.619 3.628-9.287 9.858-9.287 16.946 0 5.323 2.069 10.162 5.446 13.759l-0.010-0.011c2.548 2.548 3.851 5.097 6.399 7.645 31.445 31.479 59.663 66.193 84.109 103.596l1.517 2.474c26.843 53.686 8.948 88.174-16.593 103.521-7.861 5.583-17.654 8.925-28.227 8.925-16.275 0-30.701-7.919-39.634-20.113l-0.096-0.138c-27.797-39.461-56.339-74.078-87.252-106.41l0.323 0.341c-32.123-35.188-62.377-73.554-89.763-114.020l-2.263-3.546c-33.116-65.192-53.89-141.7-57.218-222.71l-0.036-1.096c-2.548-45.984-3.851-99.67-5.097-131.667-0.002-0.136-0.004-0.296-0.004-0.457 0-15.982 12.956-28.938 28.938-28.938 0.161 0 0.321 0.001 0.481 0.004h187.877c0.136-0.002 0.296-0.004 0.457-0.004 15.982 0 28.938 12.956 28.938 28.938 0 0.161-0.001 0.321-0.004 0.481v-0.024 53.686c0.165 13.113 6.619 24.686 16.478 31.86l0.115 0.080c62.15 40.492 115.875 86.496 162.976 138.604l0.63 0.708c76.678 89.477 104.824 352.754 108.618 431.981 0.429 2.709 0.674 5.833 0.674 9.015 0 33.466-27.129 60.595-60.595 60.595-28.486 0-52.381-19.657-58.862-46.146l-0.086-0.415zM473.038 321.94c-29.177 44.036-59.453 82.426-92.563 118.153l0.538-0.588c-29.49 32.038-57.988 66.609-84.554 102.691l-2.375 3.379c-9.030 12.332-23.455 20.251-39.73 20.251-10.573 0-20.366-3.342-28.379-9.027l0.152 0.103c-25.541-15.347-44.738-50.968-16.593-103.521 25.355-40.101 53.625-74.87 85.506-105.953l0.12-0.117c2.548-2.548 3.851-5.097 6.399-7.645 3.367-3.586 5.436-8.425 5.436-13.748 0-7.087-3.667-13.318-9.208-16.898l-0.079-0.048c-3.122-1.684-6.833-2.674-10.775-2.674-6.251 0-11.921 2.489-16.074 6.529l-6.394 6.394c-28.315 30.694-53.686 58.783-72.827 84.38-6.829 8.914-13.206 18.966-18.669 29.566l-0.529 1.128c-11.133 18.186-17.726 40.2-17.726 63.753 0 15.186 2.741 29.732 7.754 43.17l-0.279-0.853c-13.972 28.082-28.648 63.126-41.307 99.12l-2.129 6.949c-6.335 27.214-30.382 47.18-59.091 47.18-33.466 0-60.595-27.129-60.595-60.595 0-3.381 0.277-6.698 0.81-9.929l-0.048 0.352c3.851-77.981 31.94-341.258 108.618-430.735 48.689-52.955 102.728-99.693 161.643-139.799l3.209-2.062c9.974-7.254 16.427-18.826 16.593-31.914v-53.712c-0.002-0.136-0.004-0.296-0.004-0.457 0-15.982 12.956-28.938 28.938-28.938 0.161 0 0.321 0.001 0.481 0.004h187.877c0.136-0.002 0.296-0.004 0.457-0.004 15.982 0 28.938 12.956 28.938 28.938 0 0.161-0.001 0.321-0.004 0.481v-0.024c-1.303 31.94-2.548 85.626-5.097 131.667-5.769 82.767-26.715 159.339-60.074 228.821l1.631-3.77zM431.301 606c-0.001-0.089-0.001-0.193-0.001-0.298 0-25.959 21.044-47.004 47.004-47.004 13.124 0 24.993 5.379 33.52 14.053l0.006 0.007 288.818 288.818c8.677 8.429 14.062 20.207 14.062 33.242s-5.384 24.814-14.050 33.232l-0.011 0.011c-8.596 8.31-20.321 13.431-33.242 13.431s-24.646-5.121-33.256-13.444l-288.805-288.805c-8.66-8.438-14.035-20.211-14.044-33.241v-0.002zM560.306 884.568c0-41.66-33.772-75.432-75.432-75.432s-75.432 33.772-75.432 75.432c0 41.66 33.772 75.432 75.432 75.432s75.432-33.772 75.432-75.432zM836.608 607.982c0-41.66-33.772-75.432-75.432-75.432s-75.432 33.772-75.432 75.432c0 41.66 33.772 75.432 75.432 75.432s75.432-33.772 75.432-75.432z" />
<glyph unicode="&#xe911;" glyph-name="order_bar_yellow" horiz-adv-x="1453" d="M808.657 895.529v-959.661l-682.623 169.698v488.814l533.666-26.422zM1294.499 920.829l-640.743 39.105 158.534-406.509 640.743 39.105zM644.574 895.529l148.956-327.44 533.666 26.422v-488.814l-682.623-169.83zM158.733 920.829l-158.534-328.298 640.743-39.105 158.534 406.509z" />
<glyph unicode="&#xe912;" glyph-name="order_espcial_uellow" horiz-adv-x="1170" d="M37.904 815.081l42.955 12.652 103.559 31.578v-255.176l118.604 22.753v267.775l106.323 31.578 107.333 31.578c1.276 0 2.552 0 2.552 1.276h2.552c2.845 0.601 6.114 0.945 9.463 0.945s6.618-0.344 9.773-0.999l-0.31 0.054h2.552c1.276 0 2.552 0 2.552-1.276l199.569-59.382c-24.566-25.788-44.926-55.868-59.796-88.949l-0.808-2.011-102.283 30.302v-779.244l375.109 112.384v227.372h1.276c37.263 0.341 72.81 7.252 105.679 19.626l-2.12-0.7v-284.202c-0.424-23.671-16.058-43.58-37.523-50.399l-0.381-0.105-477.445-143.962c-4.517-1.6-9.726-2.524-15.151-2.524s-10.634 0.924-15.479 2.625l0.327-0.1-478.455 143.962c-22.030 6.195-37.91 26.106-37.91 49.726 0 0.274 0.002 0.547 0.006 0.819l-0.001-0.041v631.614c-0.004 0.251-0.007 0.547-0.007 0.843 0 23.465 15.673 43.27 37.121 49.516l0.364 0.091zM958.664 904.765c116.502 0 210.945-94.444 210.945-210.945s-94.444-210.945-210.945-210.945c-116.502 0-210.945 94.444-210.945 210.945v0c0.211 116.398 94.498 210.704 210.869 210.945h0.023zM852.341 687.546l79.53-79.583 132.585 132.585-40.403 40.403-92.182-92.182-39.127 39.18z" />
<glyph unicode="&#xe913;" glyph-name="product_bar_yellow" horiz-adv-x="854" d="M283.83 168.111c-17.44 26.704-35.706 49.966-55.776 71.527l0.292-0.317c-17.492 19.214-34.476 40.004-50.322 61.679l-1.474 2.114c-5.419 7.598-14.203 12.494-24.13 12.494-6.181 0-11.919-1.898-16.663-5.143l0.101 0.065c-15.531-9.241-26.83-30.518-10.173-62.124 15.584-23.954 32.341-44.819 50.943-63.875l-0.079 0.082c0.932-1.864 2.757-2.757 3.883-4.62 1.82-2.152 2.926-4.959 2.926-8.024 0-4.363-2.242-8.202-5.636-10.429l-0.047-0.029c-1.773-1.148-3.941-1.83-6.267-1.83-3.766 0-7.114 1.787-9.243 4.559l-0.020 0.028-3.883 3.883c-14.828 15.537-29.054 32.114-42.38 49.421l-1.068 1.443c-4.124 5.36-7.83 11.429-10.852 17.882l-0.253 0.6c-6.676 11.141-10.623 24.58-10.623 38.941 0 8.899 1.516 17.443 4.303 25.39l-0.164-0.537c-8.237 16.749-16.99 37.829-24.574 59.459l-1.324 4.335c-3.929 16.126-18.248 27.91-35.32 27.91-20.050 0-36.304-16.254-36.304-36.304 0-1.93 0.151-3.824 0.441-5.673l-0.026 0.205c2.757-47.176 19.414-205.281 65.657-258.902 29.47-31.367 61.86-59.356 96.934-83.755l1.999-1.316c6.172-4.169 10.176-11.139 10.176-19.044 0-0.13-0.001-0.26-0.003-0.389v0.020-32.343c0-9.693 7.857-17.55 17.55-17.55h112.794c9.693 0 17.55 7.857 17.55 17.55v0c-0.932 19.414-1.864 50.864-2.757 79.519-3.35 49.064-16.347 94.379-37.102 135.077l0.915-1.976zM782.065 363.997c-4.62-14.793-14.793-38.828-25.898-63.794 2.635-7.415 4.157-15.967 4.157-24.874 0-14.356-3.955-27.788-10.835-39.267l0.193 0.347c-3.586-7.121-7.276-13.172-11.389-18.898l0.284 0.416c-14.394-18.75-28.62-35.327-43.677-51.106l0.229 0.241c-0.932-0.932-1.864-2.757-3.883-3.883-2.355-2.613-5.752-4.249-9.53-4.249-2.196 0-4.262 0.552-6.069 1.526l0.068-0.034c-3.411 2.286-5.627 6.126-5.627 10.484 0 3.048 1.084 5.842 2.887 8.019l-0.017-0.021c0.932 1.864 2.757 2.757 3.883 4.62 19.126 18.704 35.884 39.699 49.868 62.576l0.802 1.412c16.657 32.343 5.552 53.621-10.173 62.124-4.64 3.144-10.362 5.020-16.523 5.020-9.926 0-18.715-4.869-24.108-12.348l-0.060-0.088c-16.92-23.748-33.917-44.552-52.156-64.186l0.36 0.392c-19.593-21.275-37.848-44.526-54.199-69.151l-1.285-2.058c-19.922-39.042-32.352-84.9-34.189-133.47l-0.018-0.601c-1.864-27.723-2.757-60.105-2.757-79.519-0.006-0.165-0.009-0.358-0.009-0.553 0-9.392 7.614-17.006 17.006-17.006 0.194 0 0.388 0.003 0.581 0.010l-0.028-0.001h112.794c9.693 0 17.55 7.857 17.55 17.55v0 32.343c0.090 7.992 4.054 15.040 10.1 19.364l0.073 0.050c37.073 25.715 69.463 53.704 98.635 84.751l0.298 0.32c46.244 53.621 62.862 211.727 64.726 258.902 0.212 1.486 0.334 3.203 0.334 4.947 0 20.35-16.497 36.847-36.847 36.847-16.903 0-31.147-11.381-35.488-26.898l-0.062-0.259zM731.24 572.695v294.158c-0.66 9.539-7.919 17.198-17.213 18.47l-0.104 0.012-279.248 73.967c-2.253 0.44-4.844 0.692-7.494 0.692s-5.241-0.252-7.75-0.733l0.256 0.041-279.287-73.967c-9.253-1.571-16.358-9.072-17.31-18.394l-0.007-0.088v-294.158c0.66-9.539 7.919-17.198 17.213-18.47l0.104-0.012 279.248-73.967c1.912-0.633 4.114-0.999 6.4-0.999 0.59 0 1.174 0.024 1.752 0.072l-0.076-0.005c0.391-0.023 0.849-0.036 1.309-0.036 2.411 0 4.74 0.353 6.938 1.011l-0.171-0.044 279.248 73.967c9.030 1.556 15.862 9.174 16.19 18.448l0.001 0.034zM426.599 919.425l200.777-52.689-200.777-52.611-62.124 16.657 43.836 12.93c9.251 1.596 16.199 9.559 16.199 19.146 0 2.425-0.445 4.746-1.256 6.886l0.044-0.133c-4.798 8.134-13.516 13.506-23.489 13.506-3.156 0-6.187-0.538-9.006-1.527l-102.509-31.392-62.124 16.657zM171.54 839.091l90.002-24.034v-163.658c2.606-11.15 12.462-19.328 24.228-19.328s21.623 8.178 24.195 19.16l0.033 0.168v150.729l90.002-24.034v-252.379l-229.626 60.105v253.272zM591.577 562.638v103.553c-2.606 11.15-12.462 19.328-24.228 19.328s-21.623-8.178-24.195-19.16l-0.033-0.168v-116.483l-90.002-24.034v253.311l229.626 60.105v-252.379z" />
<glyph unicode="&#xe914;" glyph-name="rate_menu_yellow" horiz-adv-x="1120" d="M1016.264 648.388c7.588-21.906 11.983-47.154 12.011-73.424v-0.013c0-171.557-190.947-312.121-433.652-325.709-40.777-39.197-86.877-73.327-136.994-101.091l-3.367-1.711c45.886-14.758 99.005-24.664 153.971-27.616l1.606-0.069c97.714-91.978 221.851-156.923 359.84-182.286l4.395-0.671c-57.443 42.555-94.272 110.11-94.272 186.266 0 13.808 1.211 27.333 3.532 40.475l-0.204-1.391c141.327 56.388 236.546 162.091 236.546 283.113-2.89 82.813-42.447 155.836-102.848 203.697l-0.564 0.432zM471.719 960c-260.568 0-471.719-146.162-471.719-326.575 0-6.718 0.254-13.537 0.865-20.357 10.178-112.573 102.191-209.726 235.63-262.959 2.109-11.72 3.314-25.21 3.314-38.982 0-76.134-36.848-143.662-93.683-185.722l-0.626-0.443c142.416 26.067 266.563 91.105 364.588 183.542l-0.353-0.33c242.704 13.385 433.702 154.050 433.702 325.709 0 179.904-211.253 326.117-471.719 326.117zM676.203 511.081h-435.433c-0.687-0.049-1.488-0.076-2.296-0.076-19.085 0-34.556 15.471-34.556 34.556s15.471 34.556 34.556 34.556c0.808 0 1.609-0.028 2.403-0.082l-0.107 0.006h435.433c0.687 0.049 1.488 0.076 2.296 0.076 19.085 0 34.556-15.471 34.556-34.556s-15.471-34.556-34.556-34.556c-0.808 0-1.609 0.028-2.403 0.082l0.107-0.006zM676.203 675.971h-435.433c-0.686-0.049-1.487-0.076-2.294-0.076-19.056 0-34.505 15.448-34.505 34.505s15.448 34.505 34.505 34.505c0.807 0 1.608-0.028 2.401-0.082l-0.107 0.006h435.433c0.686 0.049 1.487 0.076 2.294 0.076 19.056 0 34.505-15.448 34.505-34.505s-15.448-34.505-34.505-34.505c-0.807 0-1.608 0.028-2.401 0.082l0.107-0.006z" />
<glyph unicode="&#xe915;" glyph-name="search" horiz-adv-x="989" d="M973.582 27.323l-243.729 253.485c60.146 71.303 96.7 164.215 96.7 265.665 0 228.251-185.034 413.284-413.284 413.284s-413.284-185.034-413.284-413.284c0-228.251 185.034-413.284 413.284-413.284 0.048 0 0.096 0 0.145 0h-0.007c0.312-0.001 0.681-0.001 1.051-0.001 88.376 0 170.206 28.031 237.082 75.688l-1.251-0.847 245.547-255.364c9.828-10.207 23.611-16.547 38.874-16.547 29.788 0 53.937 24.148 53.937 53.937 0 14.525-5.742 27.709-15.079 37.407l0.016-0.017zM413.406 852.134c0.018 0 0.039 0 0.061 0 168.778 0 305.6-136.822 305.6-305.6s-136.822-305.6-305.6-305.6c-168.778 0-305.6 136.822-305.6 305.6 0 0.021 0 0.042 0 0.064v-0.003c0.207 168.662 136.878 305.333 305.52 305.54h0.020z" />
<glyph unicode="&#xe916;" glyph-name="settings_bar_yellow" d="M1020.788 504.832c-3.748 14.608-16.798 25.233-32.329 25.233-0.204 0-0.407-0.002-0.609-0.005h0.030c-0.416-0.006-0.907-0.009-1.398-0.009-62.441 0-113.059 50.618-113.059 113.059 0 33.133 14.253 62.937 36.961 83.616l0.091 0.081c5.682 5.217 9.23 12.68 9.23 20.972 0 6.679-2.302 12.82-6.157 17.673l0.045-0.059c-24.21 30.608-50.84 57.489-80.165 81.167l-0.964 0.753c-4.825 3.879-11.026 6.225-17.774 6.225-8.374 0-15.904-3.614-21.116-9.366l-0.022-0.024c-21.527-22.53-51.81-36.536-85.365-36.536-15.232 0-29.79 2.886-43.157 8.142l0.801-0.277c-41.080 17.752-69.307 57.921-69.307 104.682 0 2.292 0.068 4.568 0.202 6.826l-0.015-0.311c0.033 0.513 0.052 1.113 0.052 1.718 0 14.551-10.946 26.546-25.054 28.198l-0.133 0.013c-17.658 2.163-38.101 3.397-58.831 3.397-19.859 0-39.454-1.133-58.723-3.337l2.355 0.219c-14.322-1.636-25.344-13.687-25.344-28.312 0-0.405 0.008-0.808 0.025-1.209l-0.002 0.057c0.041-1.145 0.065-2.49 0.065-3.84 0-47.147-28.635-87.606-69.462-104.934l-0.746-0.281c-12.305-4.741-26.543-7.488-41.422-7.488-33.505 0-63.758 13.927-85.285 36.307l-0.037 0.038c-5.236 5.723-12.738 9.299-21.076 9.299-6.649 0-12.767-2.274-17.618-6.088l0.061 0.047c-30.978-24.412-58.166-51.29-82.097-80.909l-0.754-0.964c-3.903-4.834-6.265-11.052-6.265-17.823 0-8.349 3.591-15.858 9.314-21.069l0.023-0.021c22.975-20.845 37.344-50.818 37.344-84.148 0-15.742-3.205-30.735-8.999-44.362l0.28 0.743c-19.104-41.231-60.134-69.316-107.724-69.316-1.287 0-2.569 0.021-3.845 0.061l0.186-0.005c-0.527 0.036-1.143 0.056-1.764 0.056-14.46 0-26.353-10.99-27.783-25.072l-0.010-0.118c-2.108-17.461-3.31-37.681-3.31-58.182s1.203-40.72 3.541-60.592l-0.231 2.411c3.975-14.618 17.128-25.191 32.751-25.191 0.284 0 0.568 0.004 0.85 0.010l-0.042-0.001c0.376 0.005 0.82 0.007 1.264 0.007 46.824 0 86.953-28.666 103.795-69.406l0.273-0.745c5.25-12.627 8.3-27.294 8.3-42.673 0-33.181-14.195-63.047-36.843-83.856l-0.082-0.075c-5.682-5.217-9.23-12.68-9.23-20.972 0-6.679 2.302-12.82 6.157-17.673l-0.045 0.059c24.185-30.617 50.768-57.511 80.037-81.22l0.952-0.747c4.838-3.916 11.067-6.286 17.85-6.286 8.359 0 15.877 3.6 21.088 9.335l0.021 0.023c21.486 22.44 51.686 36.388 85.143 36.388 15.211 0 29.75-2.883 43.098-8.132l-0.799 0.277c41.15-17.663 69.448-57.836 69.448-104.618 0-2.298-0.068-4.58-0.203-6.844l0.015 0.312c-0.031-0.501-0.049-1.087-0.049-1.676 0-14.56 10.941-26.564 25.050-28.239l0.134-0.013c17.719-2.184 38.23-3.431 59.032-3.431 19.789 0 39.314 1.128 58.515 3.323l-2.347-0.218c14.341 1.616 25.385 13.677 25.385 28.317 0 0.354-0.006 0.707-0.019 1.058l0.001-0.051c-0.047 1.225-0.074 2.663-0.074 4.108 0 47.090 28.601 87.501 69.38 104.807l0.745 0.281c12.328 4.769 26.594 7.532 41.506 7.532 33.502 0 63.747-13.946 85.245-36.349l0.039-0.041c5.248-5.688 12.74-9.239 21.061-9.239 6.652 0 12.774 2.269 17.634 6.075l-0.063-0.047c30.971 24.42 58.158 51.297 82.096 80.909l0.755 0.965c3.913 4.832 6.282 11.053 6.282 17.828 0 8.35-3.599 15.86-9.33 21.063l-0.024 0.021c-22.987 20.846-37.364 50.827-37.364 84.166 0 15.717 3.195 30.688 8.972 44.298l-0.28-0.743c17.925 40.977 58.006 69.143 104.694 69.399h6.363c0.504-0.032 1.093-0.050 1.687-0.050 14.552 0 26.556 10.912 28.275 25.001l0.014 0.137c2.189 17.79 3.439 38.383 3.439 59.269 0 20.165-1.165 40.059-3.431 59.616l0.224-2.382zM512.791 276.108c-94.317 0-170.775 76.459-170.775 170.775s76.459 170.775 170.775 170.775c94.317 0 170.775-76.459 170.775-170.775v0c-0.106-94.274-76.501-170.669-170.765-170.775h-0.010z" />
<glyph unicode="&#xe917;" glyph-name="Shape_arrow_left" horiz-adv-x="632" d="M0 56.32l390.842 391.68-390.982 391.68 120.46 120.32 512-512-512-512z" />
<glyph unicode="&#xe918;" glyph-name="star_icon" horiz-adv-x="1069" d="M1045.619 495.901c14.272 13.936 23.123 33.369 23.123 54.869 0 38.447-28.303 70.284-65.21 75.812l-0.421 0.052-258.793 37.651c-11.222 1.713-20.509 8.704-25.368 18.315l-0.089 0.194-115.721 234.503c-12.811 25.493-38.758 42.68-68.718 42.68s-55.907-17.187-68.518-42.239l-0.201-0.44-115.867-234.503c-4.957-9.817-14.264-16.812-25.317-18.486l-0.188-0.023-258.793-37.602c-37.269-5.635-65.506-37.443-65.506-75.846 0-21.534 8.879-40.994 23.175-54.92l0.017-0.016 187.233-182.521c6.295-6.176 10.196-14.773 10.196-24.28 0-2.012-0.175-3.982-0.51-5.898l0.030 0.204-44.161-257.482c-0.773-4.045-1.216-8.698-1.216-13.455 0-18.624 6.783-35.664 18.013-48.783l-0.086 0.102c14.292-16.732 35.411-27.271 58.992-27.271 12.966 0 25.188 3.187 35.925 8.819l-0.425-0.203 231.442 121.454c4.577 2.384 9.995 3.783 15.74 3.783s11.163-1.399 15.933-3.874l-0.193 0.091 231.442-121.454c10.322-5.62 22.603-8.928 35.655-8.939h0.003c23.579 0.038 44.663 10.688 58.736 27.428l0.096 0.117c11.147 13.012 17.931 30.047 17.931 48.667 0 4.761-0.444 9.419-1.292 13.934l0.073-0.466-44.209 257.482c-0.305 1.712-0.48 3.683-0.48 5.694 0 9.508 3.902 18.104 10.191 24.275l0.005 0.005z" />
<glyph unicode="&#xe919;" glyph-name="tickWhite" horiz-adv-x="1394" d="M1373.866 939.498c-12.622 12.617-30.057 20.42-49.314 20.42s-36.692-7.803-49.314-20.421l-835.237-835.237-320.993 321.6c-12.513 12.021-29.54 19.424-48.297 19.424-38.524 0-69.755-31.23-69.755-69.755 0-18.757 7.403-35.784 19.447-48.32l-0.022 0.023 370.368-370.853c12.622-12.617 30.057-20.42 49.314-20.42s36.692 7.803 49.314 20.421l884.612 884.612c12.545 12.61 20.299 29.995 20.299 49.192 0 19.257-7.803 36.692-20.421 49.314v0z" />
</font>
</defs>
</svg>
