<svg xmlns="http://www.w3.org/2000/svg" width="22" height="21.266" viewBox="0 0 22 21.266">
  <g id="bar_chart_yellow" transform="translate(0 -6.117)">
    <g id="Group_3770" data-name="Group 3770" transform="translate(0 6.117)">
      <g id="Group_3769" data-name="Group 3769" transform="translate(0 0)">
        <rect id="Rectangle_2301" data-name="Rectangle 2301" width="3.479" height="8.001" transform="translate(9.263 13.263)"/>
        <rect id="Rectangle_2302" data-name="Rectangle 2302" width="3.479" height="13.219" transform="translate(17.124 8.045)"/>
        <rect id="Rectangle_2303" data-name="Rectangle 2303" width="3.479" height="4.522" transform="translate(1.401 16.742)"/>
        <path id="Path_3506" data-name="Path 3506" d="M21.9,6.745a.483.483,0,0,0-.345-.174L15.87,6.118a.491.491,0,0,0-.5.487.508.508,0,0,0,.44.557l4.429.348-7.852,6.818L6.6,9.284a.41.41,0,0,0-.621.027l-.007.008L.134,15.511a.563.563,0,0,0,0,.73.483.483,0,0,0,.345.174.487.487,0,0,0,.314-.174l5.528-5.879,5.748,5.009a.437.437,0,0,0,.6.035l8.323-7.2-.345,4.7a.507.507,0,0,0,.438.556h.033a.457.457,0,0,0,.471-.45v0l.408-5.879A.526.526,0,0,0,21.9,6.745Z" transform="translate(0 -6.117)"/>
      </g>
    </g>
  </g>
</svg>
