<svg id="call_bar_yellow" xmlns="http://www.w3.org/2000/svg" width="22" height="22.006" viewBox="0 0 22 22.006">
  <g id="Group_531" data-name="Group 531" transform="translate(0 0)">
    <g id="Group_529" data-name="Group 529" transform="translate(4.077 2.974)">
      <path id="Path_283" data-name="Path 283" d="M19.036,12.313c-.062-.193-.123-.386-.186-.579a4.475,4.475,0,0,0-1.191-1.843A5.716,5.716,0,0,0,16.394,9a1.643,1.643,0,0,0-2.016.345c-.542.632-1.07,1.273-1.6,1.912-.308.368-.612.738-.921,1.1a1.3,1.3,0,0,0,.246,2c.446.332.921.632,1.387.943.13.086.271.16.406.239A14.545,14.545,0,0,1,12.013,19a14.6,14.6,0,0,1-3.932,3.484c-.382-.26-.768-.525-1.156-.787-.2-.133-.391-.268-.593-.394a1.683,1.683,0,0,0-1.873,0,2.926,2.926,0,0,0-.569.575c-.764.9-1.517,1.818-2.281,2.723a1.674,1.674,0,0,0-.352.859l.063.39a2.559,2.559,0,0,0,.317.495,5.006,5.006,0,0,0,1.556,1.025,5.3,5.3,0,0,0,3.377.315,12.86,12.86,0,0,0,3.494-1.4,16.5,16.5,0,0,0,2.382-1.671,20.829,20.829,0,0,0,2.546-2.521,31.142,31.142,0,0,0,2.09-2.721,13.474,13.474,0,0,0,1.743-3.4,6.948,6.948,0,0,0,.357-2.149q0-.308,0-.617Q19.106,12.759,19.036,12.313Z" transform="translate(-1.257 -8.802)"/>
    </g>
    <g id="Group_530" data-name="Group 530" transform="translate(0)">
      <path id="Path_284" data-name="Path 284" d="M30.575,25.425h.041a1.021,1.021,0,0,0,.981-1.06,4.642,4.642,0,0,1,1.918-4.2,5.958,5.958,0,0,1,2.084-.953,1.021,1.021,0,1,0-.377-2.008,6.947,6.947,0,0,0-5.666,7.236A1.022,1.022,0,0,0,30.575,25.425Z" transform="translate(-23.359 -10.913)"/>
      <path id="Path_285" data-name="Path 285" d="M31.914,16.732h.041a1.021,1.021,0,0,0,.981-1.06A11.205,11.205,0,0,1,37.592,5.549a14.012,14.012,0,0,1,5-2.275,1.021,1.021,0,1,0-.377-2.008A16,16,0,0,0,36.4,3.894a13.256,13.256,0,0,0-5.5,11.857A1.021,1.021,0,0,0,31.914,16.732Z" transform="translate(-30.88 -1.249)"/>
    </g>
  </g>
</svg>
