<svg xmlns="http://www.w3.org/2000/svg" width="22" height="22" viewBox="0 0 22 22">
  <g id="check_black" transform="translate(14363 21901)">
    <rect id="check_yellow" width="22" height="22" rx="2" transform="translate(-14363 -21901)"/>
    <g id="check-mark-black-outline" transform="translate(-14356.206 -21893.631)">
      <path id="Path_2096" data-name="Path 2096" d="M8.911,11.422,3.363,16.969a.125.125,0,0,1-.177,0l-3.15-3.15a.125.125,0,0,1,0-.177L.8,12.877a.125.125,0,0,1,.177,0l2.3,2.3,4.694-4.694a.125.125,0,0,1,.177,0l.765.765A.125.125,0,0,1,8.911,11.422Z" transform="translate(0 -10.443)" fill="#fff"/>
    </g>
  </g>
</svg>
