<svg xmlns="http://www.w3.org/2000/svg" width="85.288" height="56.636" viewBox="0 0 85.288 56.636">
  <g id="coment" transform="translate(-1029.659 -160.088)">
    <g id="comment" transform="translate(1054.449 158.418)">
      <path id="Path_217" data-name="Path 217" d="M10.986,21.614h0a1.534,1.534,0,0,1-1.529,1.529H2.729A1.534,1.534,0,0,1,1.2,21.614h0a1.534,1.534,0,0,1,1.529-1.529H9.5A1.526,1.526,0,0,1,10.986,21.614ZM9.5,26.2H2.729A1.534,1.534,0,0,0,1.2,27.73h0a1.534,1.534,0,0,0,1.529,1.529H9.5a1.534,1.534,0,0,0,1.529-1.529h0A1.559,1.559,0,0,0,9.5,26.2Zm0,6.078H2.729A1.534,1.534,0,0,0,1.2,33.808h0a1.534,1.534,0,0,0,1.529,1.529H9.5a1.534,1.534,0,0,0,1.529-1.529h0A1.559,1.559,0,0,0,9.5,32.279ZM38.509,20.926V34.5a3.328,3.328,0,0,1-3.326,3.326H26.009a.037.037,0,0,1-.038.038l-4.281,4.32a.674.674,0,0,1-1.147-.459V37.86h-3.4a3.328,3.328,0,0,1-3.326-3.326V20.926A3.328,3.328,0,0,1,17.14,17.6H35.183A3.328,3.328,0,0,1,38.509,20.926ZM23.18,27.73a1.453,1.453,0,1,0-1.453,1.453A1.452,1.452,0,0,0,23.18,27.73Zm4.434,0a1.453,1.453,0,1,0-1.453,1.453A1.452,1.452,0,0,0,27.614,27.73Zm4.472,0a1.453,1.453,0,1,0-1.453,1.453A1.452,1.452,0,0,0,32.087,27.73Z" transform="translate(0 0)" fill="#fff"/>
    </g>
    <g id="comment-2" data-name="comment" transform="translate(1028.459 142.488)" opacity="0.1">
      <path id="Path_217-2" data-name="Path 217" d="M23.57,26.775h0a3.506,3.506,0,0,1-3.5,3.5H4.7a3.506,3.506,0,0,1-3.5-3.5h0a3.506,3.506,0,0,1,3.5-3.5H20.162A3.488,3.488,0,0,1,23.57,26.775ZM20.162,37.262H4.7a3.506,3.506,0,0,0-3.5,3.5h0a3.506,3.506,0,0,0,3.5,3.5H20.162a3.506,3.506,0,0,0,3.5-3.5h0A3.564,3.564,0,0,0,20.162,37.262Zm0,13.894H4.7a3.506,3.506,0,0,0-3.5,3.5h0a3.506,3.506,0,0,0,3.5,3.5H20.162a3.506,3.506,0,0,0,3.5-3.5h0A3.564,3.564,0,0,0,20.162,51.156ZM86.488,25.2V56.224a7.608,7.608,0,0,1-7.6,7.6H57.913a.086.086,0,0,1-.087.087l-9.787,9.874a1.54,1.54,0,0,1-2.622-1.049V63.914H37.639a7.608,7.608,0,0,1-7.6-7.6V25.2a7.608,7.608,0,0,1,7.6-7.6H78.885A7.608,7.608,0,0,1,86.488,25.2ZM51.446,40.757a3.321,3.321,0,1,0-3.321,3.321A3.319,3.319,0,0,0,51.446,40.757Zm10.137,0a3.321,3.321,0,1,0-3.321,3.321A3.319,3.319,0,0,0,61.583,40.757Zm10.224,0a3.321,3.321,0,1,0-3.321,3.321A3.319,3.319,0,0,0,71.807,40.757Z" transform="translate(0 0)" fill="#fff"/>
    </g>
  </g>
</svg>
