<svg xmlns="http://www.w3.org/2000/svg" width="22" height="14.609" viewBox="0 0 22 14.609">
  <g id="comment_icon" transform="translate(-1.2 -17.6)">
    <path id="Path_217" data-name="Path 217" d="M6.97,19.967h0a.9.9,0,0,1-.9.9H2.1a.9.9,0,0,1-.9-.9h0a.9.9,0,0,1,.9-.9h3.99A.9.9,0,0,1,6.97,19.967Zm-.879,2.7H2.1a.9.9,0,0,0-.9.9h0a.9.9,0,0,0,.9.9h3.99a.9.9,0,0,0,.9-.9h0A.919.919,0,0,0,6.091,22.672Zm0,3.584H2.1a.9.9,0,0,0-.9.9h0a.9.9,0,0,0,.9.9h3.99a.9.9,0,0,0,.9-.9h0A.919.919,0,0,0,6.091,26.256ZM23.2,19.561v8a1.962,1.962,0,0,1-1.961,1.961h-5.41a.022.022,0,0,1-.023.023l-2.525,2.547a.4.4,0,0,1-.676-.27V29.547H10.6a1.962,1.962,0,0,1-1.961-1.961V19.561A1.962,1.962,0,0,1,10.6,17.6H21.239A1.962,1.962,0,0,1,23.2,19.561Zm-9.039,4.012a.857.857,0,1,0-.857.857A.856.856,0,0,0,14.161,23.573Zm2.615,0a.857.857,0,1,0-.857.857A.856.856,0,0,0,16.776,23.573Zm2.637,0a.857.857,0,1,0-.857.857A.856.856,0,0,0,19.413,23.573Z" transform="translate(0 0)"/>
  </g>
</svg>
