<svg xmlns="http://www.w3.org/2000/svg" width="22" height="22" viewBox="0 0 22 22">
  <g id="cross_black" transform="translate(41.008 -88.475)">
    <path id="cancel_1_" data-name="cancel (1)" d="M11,0A11,11,0,1,0,22,11,10.968,10.968,0,0,0,11,0Zm1.6,11.2,3.75,3.75a.483.483,0,0,1,0,.7l-.7.7a.54.54,0,0,1-.35.15.454.454,0,0,1-.35-.15L11.2,12.6a.242.242,0,0,0-.35,0L7.1,16.35a.54.54,0,0,1-.35.15.454.454,0,0,1-.35-.15l-.7-.7a.483.483,0,0,1,0-.7L9.45,11.2a.242.242,0,0,0,0-.35L5.7,7.1a.483.483,0,0,1,0-.7l.7-.7a.483.483,0,0,1,.7,0l3.75,3.75a.242.242,0,0,0,.35,0L14.95,5.7a.54.54,0,0,1,.35-.15.454.454,0,0,1,.35.15l.7.7a.483.483,0,0,1,0,.7L12.6,10.85C12.5,10.9,12.5,11.1,12.6,11.2Z" transform="translate(-41.008 88.475)"/>
  </g>
</svg>
