<svg xmlns="http://www.w3.org/2000/svg" width="22" height="22" viewBox="0 0 22 22">
  <g id="Home_yellow" transform="translate(-5 -5)">
    <path id="Path_210" data-name="Path 210" d="M7.007,14.47,16,7.789l8.992,6.681a1.265,1.265,0,0,0,1.754-.243A1.223,1.223,0,0,0,26.5,12.5L16.735,5.242a1.234,1.234,0,0,0-1.468,0L5.5,12.5a1.223,1.223,0,0,0-.246,1.729,1.265,1.265,0,0,0,1.754.243Z" transform="translate(0 0)"/>
    <path id="Path_211" data-name="Path 211" d="M32.206,40.428a.985.985,0,0,0,.995-.975V29.107l-8.116-6-8.118,6V39.453a.985.985,0,0,0,.995.975H21.54V34.817a3.544,3.544,0,0,1,7.087,0v5.611Z" transform="translate(-9.084 -13.428)"/>
  </g>
</svg>
