<svg id="image" xmlns="http://www.w3.org/2000/svg" width="22" height="22" viewBox="0 0 22 22">
  <path id="Path_166" data-name="Path 166" d="M11.525,14.163a2.4,2.4,0,1,0-2.4-2.4,2.4,2.4,0,0,0,2.4,2.4ZM23.806,16.15a.951.951,0,0,0-1.2.064l-2.349,2.114a2.091,2.091,0,0,1-3.042-.283l-.522-.674a2.106,2.106,0,0,0-2.963-.35L8.5,21.287a1.929,1.929,0,0,0-.709,1.494v.765a.642.642,0,0,0,.642.642h15.2a.566.566,0,0,0,.566-.566V16.927a.939.939,0,0,0-.4-.777Zm1.727,8.45a.934.934,0,0,1-.933.933H7.4a.934.934,0,0,1-.933-.933V7.4A.934.934,0,0,1,7.4,6.467H24.6a.933.933,0,0,1,.933.933ZM24.6,5H7.4A2.4,2.4,0,0,0,5,7.4V24.6A2.4,2.4,0,0,0,7.4,27H24.6A2.4,2.4,0,0,0,27,24.6V7.4A2.4,2.4,0,0,0,24.6,5Z" transform="translate(-5 -5)" fill-rule="evenodd"/>
</svg>
