<svg xmlns="http://www.w3.org/2000/svg" width="22" height="22" viewBox="0 0 22 22">
  <g id="image_upload" transform="translate(-625.986 -483.986)">
    <g id="noun_Camera_Upload_625182" data-name="noun_Camera Upload_625182" transform="translate(625.986 483.986)">
      <g id="Group_582" data-name="Group 582" transform="translate(0 0)">
        <g id="Group_581" data-name="Group 581">
          <path id="Path_316" data-name="Path 316" d="M70.987,47.3a1,1,0,1,1,0,2H70.2a1,1,0,1,1,0-2Z" transform="translate(-53.507 -36.962)"/>
          <path id="Path_317" data-name="Path 317" d="M37.073,47.465a4.158,4.158,0,1,1-4.2,4.158A4.17,4.17,0,0,1,37.073,47.465Zm2.187,4.158a2.194,2.194,0,1,0-2.187,2.159A2.173,2.173,0,0,0,39.26,51.623Z" transform="translate(-26.06 -37.085)"/>
          <path id="Path_318" data-name="Path 318" d="M39.273,5.293,41.98,8a1,1,0,0,1-1.413,1.412l-1-1V12.7a1,1,0,0,1-2,0V8.411l-1.013,1a.983.983,0,0,1-1.413,0A1,1,0,0,1,35.14,8l2.72-2.705a1.355,1.355,0,0,1,.24-.173.93.93,0,0,1,.267-.107c.066,0,.133-.013.2-.013s.133.013.2.013a.93.93,0,0,1,.267.107A1.351,1.351,0,0,1,39.273,5.293Z" transform="translate(-27.553 -5)"/>
          <path id="Path_319" data-name="Path 319" d="M23.467,47.758H8.547A3.561,3.561,0,0,1,5,44.214V36.005a3.541,3.541,0,0,1,3.547-3.531H11.36a1,1,0,1,1,0,2H8.547A1.545,1.545,0,0,0,7,36.005v8.209A1.571,1.571,0,0,0,8.547,45.76h14.92A1.553,1.553,0,0,0,25,44.214V36.005a1.525,1.525,0,0,0-1.533-1.532H20.64a1,1,0,1,1,0-2h2.827A3.53,3.53,0,0,1,27,36.005v8.208A3.55,3.55,0,0,1,23.467,47.758Z" transform="translate(-5 -25.758)"/>
        </g>
      </g>
    </g>
  </g>
</svg>
