<svg xmlns="http://www.w3.org/2000/svg" width="22" height="22" viewBox="0 0 22 22">
  <path id="language" d="M11,0A11,11,0,1,0,22,11,11,11,0,0,0,11,0Zm9.513,14.854-3.128.54a16.415,16.415,0,0,0,.576-4.027h3.3a10.2,10.2,0,0,1-.744,3.487ZM.742,11.367h3.3a16.415,16.415,0,0,0,.576,4.027l-3.128-.54a10.2,10.2,0,0,1-.744-3.487Zm.744-4.22,3.128-.54a16.415,16.415,0,0,0-.576,4.027H.742a10.2,10.2,0,0,1,.744-3.487Zm9.88-1.259a25.224,25.224,0,0,1,3.931.359l1.294.223a15.739,15.739,0,0,1,.636,4.164H11.367Zm4.056-.364a25.991,25.991,0,0,0-4.056-.37V.754c2.1.2,3.928,2.127,4.963,4.928Zm-4.789-.37a25.986,25.986,0,0,0-4.055.37L5.67,5.68C6.705,2.879,8.531.953,10.633.752ZM6.7,6.246a25.218,25.218,0,0,1,3.93-.359v4.746H4.772a15.739,15.739,0,0,1,.636-4.164Zm-1.931,5.12h5.861v4.746A25.224,25.224,0,0,1,6.7,15.754l-1.294-.223a15.739,15.739,0,0,1-.636-4.164Zm1.805,5.11a26.078,26.078,0,0,0,4.056.372v4.4c-2.1-.2-3.928-2.127-4.963-4.928Zm4.789.372a26.075,26.075,0,0,0,4.055-.372l.908-.157c-1.035,2.8-2.861,4.727-4.963,4.928Zm3.93-1.094a25.218,25.218,0,0,1-3.93.359V11.367h5.861a15.739,15.739,0,0,1-.636,4.164Zm2.664-5.12a16.415,16.415,0,0,0-.576-4.027l3.128.54a10.2,10.2,0,0,1,.744,3.487Zm2.182-4.3-3-.517a10.111,10.111,0,0,0-2.917-4.565,10.315,10.315,0,0,1,5.916,5.083ZM7.773,1.256A10.111,10.111,0,0,0,4.856,5.821l-3,.517A10.315,10.315,0,0,1,7.773,1.256ZM1.857,15.662l3,.517a10.111,10.111,0,0,0,2.917,4.565,10.315,10.315,0,0,1-5.916-5.083Zm12.369,5.083a10.111,10.111,0,0,0,2.917-4.565l3-.517a10.315,10.315,0,0,1-5.916,5.083Zm0,0"/>
</svg>
