<svg xmlns="http://www.w3.org/2000/svg" width="22" height="22.691" viewBox="0 0 22 22.691">
  <g id="Menu_bar_yellow" transform="translate(-3.39 -1.93)">
    <path id="Path_212" data-name="Path 212" d="M3.39,23.4V3.153A1.223,1.223,0,0,1,4.615,1.93h5.9a3.677,3.677,0,0,0-.472,1.815v.633H5.838V21.428l8.922-4.414a1.223,1.223,0,0,1,1.756,1.1,1.775,1.775,0,1,0,3.54,0V14.857h2.469V18.11a4.23,4.23,0,0,1-3.455,4.152L4.615,24.622A1.223,1.223,0,0,1,3.392,23.4Zm8.542-12.247V3.745A1.815,1.815,0,0,1,13.747,1.93h9.828A1.815,1.815,0,0,1,25.39,3.745v7.407a1.815,1.815,0,0,1-1.815,1.815h-5l-.012.017-2.341,2.339a.368.368,0,0,1-.63-.26V12.969H13.747a1.815,1.815,0,0,1-1.815-1.817Zm4.99-6.108a.644.644,0,0,0,.644.644h4.22a.644.644,0,1,0,0-1.289h-4.22A.644.644,0,0,0,16.921,5.043Zm0,2.308A.644.644,0,0,0,17.566,8h4.22a.644.644,0,1,0,0-1.289h-4.22A.644.644,0,0,0,16.921,7.352Zm0,2.308a.644.644,0,0,0,.644.644h4.22a.644.644,0,1,0,0-1.289h-4.22A.644.644,0,0,0,16.921,9.66ZM14.894,5.043a.644.644,0,1,0,.644-.644.644.644,0,0,0-.644.644Zm0,2.308a.644.644,0,1,0,.644-.644.644.644,0,0,0-.644.644Zm0,2.308a.644.644,0,1,0,.644-.644.644.644,0,0,0-.644.644Z" transform="translate(0 0)"/>
  </g>
</svg>
