<svg xmlns="http://www.w3.org/2000/svg" width="22" height="27.01" viewBox="0 0 22 27.01">
  <g id="noun_order" transform="translate(-68.5 -239)">
    <g id="Group_22" data-name="Group 22" transform="translate(68.5 239)">
      <g id="Group_14" data-name="Group 14" transform="translate(1.525 0)">
        <g id="Group_10" data-name="Group 10">
          <path id="Path_197" data-name="Path 197" d="M36.3,35.01H20.178A2.157,2.157,0,0,1,18,32.832V24.554h.871v8.277a1.284,1.284,0,0,0,1.307,1.307H36.3A1.284,1.284,0,0,0,37.6,32.832V10.178A1.284,1.284,0,0,0,36.3,8.871H20.178a1.284,1.284,0,0,0-1.307,1.307v7.406H18V10.178A2.157,2.157,0,0,1,20.178,8H36.3a2.157,2.157,0,0,1,2.178,2.178V32.832A2.157,2.157,0,0,1,36.3,35.01Z" transform="translate(-18 -8)"/>
        </g>
        <g id="Group_11" data-name="Group 11" transform="translate(4.356 0.436)">
          <path id="Path_198" data-name="Path 198" d="M38.543,12.485H29.22A1.247,1.247,0,0,1,28,11.265V9h.871v2.265a.375.375,0,0,0,.349.349h9.323a.375.375,0,0,0,.349-.349V9h.871v2.265A1.247,1.247,0,0,1,38.543,12.485Z" transform="translate(-28 -9)"/>
        </g>
        <g id="Group_12" data-name="Group 12" transform="translate(1.743 2.178)">
          <path id="Path_199" data-name="Path 199" d="M38.99,35.218H22v-6.1h.871v5.228H38.119V13.871H35.941V13h3.05Z" transform="translate(-22 -13)"/>
        </g>
        <g id="Group_13" data-name="Group 13" transform="translate(1.743 2.178)">
          <path id="Path_200" data-name="Path 200" d="M22.871,21.713H22V13h3.05v.871H22.871Z" transform="translate(-22 -13)"/>
        </g>
      </g>
      <g id="Group_18" data-name="Group 18" transform="translate(0 10.673)">
        <g id="Group_15" data-name="Group 15">
          <path id="Path_201" data-name="Path 201" d="M23.169,41.126l-2.788-.915L14.5,34.33l1.83-1.83,5.881,5.881ZM20.86,39.47l.915.3-.3-.958L16.33,33.676l-.61.61Z" transform="translate(-14.5 -32.5)"/>
        </g>
        <g id="Group_16" data-name="Group 16" transform="translate(1.485 1.183)">
          <rect id="Rectangle_13" data-name="Rectangle 13" width="0.871" height="1.307" transform="translate(0.924) rotate(45)"/>
        </g>
        <g id="Group_17" data-name="Group 17" transform="translate(5.523 5.496)">
          <rect id="Rectangle_14" data-name="Rectangle 14" width="0.871" height="1.743" transform="translate(1.232 0) rotate(45)"/>
        </g>
      </g>
      <g id="Group_19" data-name="Group 19" transform="translate(6.317 6.535)">
        <rect id="Rectangle_15" data-name="Rectangle 15" width="10.455" height="0.871"/>
      </g>
      <g id="Group_20" data-name="Group 20" transform="translate(6.317 8.713)">
        <rect id="Rectangle_16" data-name="Rectangle 16" width="7.842" height="0.871"/>
      </g>
      <g id="Group_21" data-name="Group 21" transform="translate(6.317 10.891)">
        <rect id="Rectangle_17" data-name="Rectangle 17" width="10.02" height="0.871"/>
      </g>
    </g>
  </g>
</svg>
