<svg xmlns="http://www.w3.org/2000/svg" width="22" height="22" viewBox="0 0 22 22">
  <g id="noun_add" transform="translate(-2.5 -2.5)">
    <path id="Path_296" data-name="Path 296" d="M20.494,2.5H6.506A4.008,4.008,0,0,0,2.5,6.506V20.494A4.008,4.008,0,0,0,6.506,24.5H20.494A4.008,4.008,0,0,0,24.5,20.494V6.506A4.023,4.023,0,0,0,20.494,2.5ZM19.266,14.681H14.681v4.585a1.181,1.181,0,0,1-2.362,0V14.681H7.734a1.181,1.181,0,1,1,0-2.362h4.585V7.734a1.181,1.181,0,1,1,2.362,0v4.585h4.585a1.181,1.181,0,0,1,0,2.362Z"/>
  </g>
</svg>
