<svg xmlns="http://www.w3.org/2000/svg" width="82.722" height="58.29" viewBox="0 0 82.722 58.29">
  <g id="order" transform="translate(-1032.637 -158.817)">
    <g id="noun_product_1247945" transform="translate(1024.158 125.287)" opacity="0.1">
      <path id="Path_300" data-name="Path 300" d="M48.908,36.824V91.91l-33.98-9.742V54.1l26.565,1.521Z" transform="translate(-0.176 -0.09)" fill="#fff" fill-rule="evenodd"/>
      <path id="Path_301" data-name="Path 301" d="M84.5,35.476,52.615,33.53l7.9,20.236L92.4,51.82Z" transform="translate(-1.203 0)" fill="#fff" fill-rule="evenodd"/>
      <path id="Path_302" data-name="Path 302" d="M52.137,36.824l7.415,18.8L86.115,54.1V82.168L52.137,91.91Z" transform="translate(-1.19 -0.09)" fill="#fff" fill-rule="evenodd"/>
      <path id="Path_303" data-name="Path 303" d="M16.381,35.476,8.479,51.82l31.886,1.946,7.9-20.236Z" transform="translate(0 0)" fill="#fff" fill-rule="evenodd"/>
    </g>
    <g id="noun_product_1247945-2" data-name="noun_product_1247945" transform="translate(1046.604 141.104)">
      <path id="Path_300-2" data-name="Path 300" d="M30.467,36.824V62.015L14.928,57.56V44.724l12.148.7Z" transform="translate(-3.58 -1.829)" fill="#fff" fill-rule="evenodd"/>
      <path id="Path_301-2" data-name="Path 301" d="M67.2,34.42l-14.582-.89,3.614,9.254,14.582-.89Z" transform="translate(-24.502)" fill="#fff" fill-rule="evenodd"/>
      <path id="Path_302-2" data-name="Path 302" d="M52.137,36.824l3.391,8.6,12.147-.7V57.56L52.137,62.015Z" transform="translate(-24.237 -1.829)" fill="#fff" fill-rule="evenodd"/>
      <path id="Path_303-2" data-name="Path 303" d="M12.092,34.42,8.479,41.894l14.582.89,3.613-9.254Z" fill="#fff" fill-rule="evenodd"/>
    </g>
  </g>
</svg>
