<svg xmlns="http://www.w3.org/2000/svg" width="22" height="19.262" viewBox="0 0 22 19.262">
  <g id="order_espcial_uellow" transform="translate(-3.529 -9.525)">
    <path id="Path_216" data-name="Path 216" d="M4.413,12.251l.808-.238h0l1.948-.594v4.8L9.4,15.791V10.754l2-.594,2.019-.594c.024,0,.048,0,.048-.024h.048a.9.9,0,0,1,.356,0h.048c.024,0,.048,0,.048.024l3.754,1.117a5.983,5.983,0,0,0-1.14,1.711l-1.924-.57V26.482l7.056-2.114V20.091h.024a5.789,5.789,0,0,0,1.948-.356v5.346a1.013,1.013,0,0,1-.713.95l-8.981,2.708a.879.879,0,0,1-.57,0l-9-2.708a.97.97,0,0,1-.713-.95V13.2A.97.97,0,0,1,4.413,12.251Zm17.32-1.687a3.968,3.968,0,1,1-3.968,3.968A3.975,3.975,0,0,1,21.732,10.564Zm-2,4.086.736.737.76.76.76-.76,1.734-1.734-.76-.76-1.734,1.734-.736-.737Z" transform="translate(-0.171)"/>
  </g>
</svg>
