<svg xmlns="http://www.w3.org/2000/svg" width="22" height="26.373" viewBox="0 0 22 26.373">
  <g id="product_bar_yellow" transform="translate(-10.39 -2.525)">
    <path id="Path_307" data-name="Path 307" d="M17.7,53.963a13.433,13.433,0,0,0-1.429-1.834,19.269,19.269,0,0,1-1.334-1.643.761.761,0,0,0-1.048-.191c-.4.238-.691.786-.262,1.6a10.536,10.536,0,0,0,1.31,1.643c.024.048.071.071.1.119a.321.321,0,0,1-.071.476.3.3,0,0,1-.4-.071l-.1-.1a15.851,15.851,0,0,1-1.119-1.31,2.523,2.523,0,0,1-.286-.476,1.975,1.975,0,0,1-.167-1.643,15.928,15.928,0,0,1-.667-1.643.935.935,0,0,0-1.834.357c.071,1.215.5,5.287,1.691,6.668a15.7,15.7,0,0,0,2.548,2.191.59.59,0,0,1,.262.5v.833a.452.452,0,0,0,.452.452h2.905a.452.452,0,0,0,.452-.452c-.024-.5-.048-1.31-.071-2.048A8.981,8.981,0,0,0,17.7,53.963Z" transform="translate(0 -31.043)"/>
    <path id="Path_308" data-name="Path 308" d="M61.33,49c-.119.381-.381,1-.667,1.643a1.97,1.97,0,0,1-.167,1.643,3.589,3.589,0,0,1-.286.476,15.851,15.851,0,0,1-1.119,1.31c-.024.024-.048.071-.1.1a.33.33,0,0,1-.4.071.324.324,0,0,1-.071-.476c.024-.048.071-.071.1-.119A8.291,8.291,0,0,0,59.925,52c.429-.833.143-1.381-.262-1.6a.765.765,0,0,0-1.048.191,16.154,16.154,0,0,1-1.334,1.643,14.364,14.364,0,0,0-1.429,1.834,8.422,8.422,0,0,0-.881,3.453c-.048.714-.071,1.548-.071,2.048a.438.438,0,0,0,.452.452h2.905a.452.452,0,0,0,.452-.452v-.833a.621.621,0,0,1,.262-.5,15.7,15.7,0,0,0,2.548-2.191c1.191-1.381,1.619-5.453,1.667-6.668A.949.949,0,0,0,61.33,49Z" transform="translate(-30.798 -31.125)"/>
    <path id="Path_309" data-name="Path 309" d="M39.363,12.5V4.924a.515.515,0,0,0-.446-.476L31.725,2.543a1.054,1.054,0,0,0-.386,0L24.146,4.448a.536.536,0,0,0-.446.476V12.5a.515.515,0,0,0,.446.476l7.192,1.905a.541.541,0,0,0,.208.024.622.622,0,0,0,.208-.024l7.192-1.905A.5.5,0,0,0,39.363,12.5Zm-7.846-8.93,5.171,1.357L31.517,6.282l-1.6-.429,1.129-.333a.5.5,0,0,0,.386-.667.7.7,0,0,0-.832-.31l-2.645.81-1.6-.429ZM24.948,5.639l2.318.619v4.215a.64.64,0,0,0,1.248,0V6.591l2.318.619v6.5l-5.914-1.548V5.639Zm10.818,7.12V10.092a.64.64,0,0,0-1.248,0v3l-2.318.619V7.187l5.914-1.548v6.5Z" transform="translate(-10.14 0)"/>
  </g>
</svg>
