<svg xmlns="http://www.w3.org/2000/svg" width="22" height="20.121" viewBox="0 0 22 20.121">
  <g id="rate_menu_yellow" transform="translate(-0.041 -1.061)">
    <g id="Group_555" data-name="Group 555" transform="translate(0.041 1.061)">
      <path id="Path_310" data-name="Path 310" d="M20.686,7.609a4.558,4.558,0,0,1,.236,1.443c0,3.371-3.752,6.133-8.521,6.4a12.9,12.9,0,0,1-2.758,2.02,12.542,12.542,0,0,0,3.057.544,14.062,14.062,0,0,0,7.157,3.595,4.542,4.542,0,0,1-1.787-4.428c2.777-1.108,4.648-3.185,4.648-5.563A5.334,5.334,0,0,0,20.686,7.609Z" transform="translate(-0.717 -1.486)"/>
      <path id="Path_311" data-name="Path 311" d="M9.31,1.061C4.19,1.061.041,3.933.041,7.478c0,.132.005.266.017.4.2,2.212,2.008,4.121,4.63,5.167A4.537,4.537,0,0,1,2.9,17.469a14.048,14.048,0,0,0,7.157-3.6c4.769-.263,8.522-3.027,8.522-6.4C18.579,3.934,14.428,1.061,9.31,1.061Zm4.018,8.821H4.772a.679.679,0,1,1,0-1.355h8.556a.679.679,0,1,1,0,1.355Zm0-3.24H4.772a.678.678,0,1,1,0-1.353h8.556a.678.678,0,1,1,0,1.353Z" transform="translate(-0.041 -1.061)"/>
    </g>
  </g>
</svg>
