<svg xmlns="http://www.w3.org/2000/svg" width="22" height="22" viewBox="0 0 22 22">
  <g id="settings_bar_yellow" transform="translate(-0.003)">
    <g id="Group_5" data-name="Group 5" transform="translate(0.003 0)">
      <path id="Path_193" data-name="Path 193" d="M21.934,9.779a.716.716,0,0,0-.707-.542A2.429,2.429,0,0,1,19.564,5.01a.611.611,0,0,0,.067-.829,10.885,10.885,0,0,0-1.743-1.76.612.612,0,0,0-.836.068,2.535,2.535,0,0,1-2.744.616A2.443,2.443,0,0,1,12.823.716a.61.61,0,0,0-.54-.643A10.982,10.982,0,0,0,9.808.067.612.612,0,0,0,9.264.7,2.448,2.448,0,0,1,7.757,3.043a2.542,2.542,0,0,1-2.723-.62.613.613,0,0,0-.83-.07,10.926,10.926,0,0,0-1.78,1.759.612.612,0,0,0,.066.836,2.438,2.438,0,0,1,.615,2.745A2.543,2.543,0,0,1,.712,9.181a.6.6,0,0,0-.635.54,11.02,11.02,0,0,0,0,2.5.728.728,0,0,0,.721.541,2.412,2.412,0,0,1,2.263,1.507,2.446,2.446,0,0,1-.615,2.72.611.611,0,0,0-.067.829,10.925,10.925,0,0,0,1.74,1.761.612.612,0,0,0,.837-.066A2.531,2.531,0,0,1,7.694,18.9a2.439,2.439,0,0,1,1.488,2.388.611.611,0,0,0,.54.643,10.948,10.948,0,0,0,2.475.007.612.612,0,0,0,.545-.63,2.445,2.445,0,0,1,1.505-2.346,2.538,2.538,0,0,1,2.724.62.615.615,0,0,0,.83.069,10.951,10.951,0,0,0,1.78-1.759.611.611,0,0,0-.066-.836,2.438,2.438,0,0,1-.616-2.744,2.463,2.463,0,0,1,2.25-1.491l.136,0a.612.612,0,0,0,.644-.539A11.01,11.01,0,0,0,21.934,9.779ZM11.02,14.693a3.669,3.669,0,1,1,3.669-3.669A3.673,3.673,0,0,1,11.02,14.693Z" transform="translate(-0.003 0)" fill-rule="evenodd"/>
    </g>
  </g>
</svg>
