<svg xmlns="http://www.w3.org/2000/svg" width="84.821" height="81.264" viewBox="0 0 84.821 81.264">
  <g id="star" transform="translate(-320.56 -747.291)">
    <path id="star_3_" data-name="star (3)" d="M82.98,37.874A6.083,6.083,0,0,0,79.607,27.5L59.069,24.514a2.683,2.683,0,0,1-2.021-1.469L47.866,4.437a6.083,6.083,0,0,0-10.909,0l-9.183,18.61a2.685,2.685,0,0,1-2.023,1.469L5.213,27.5A6.083,6.083,0,0,0,1.84,37.876L16.7,52.36a2.689,2.689,0,0,1,.774,2.378L13.969,75.191A5.955,5.955,0,0,0,15.3,80.123a6.147,6.147,0,0,0,7.5,1.479l18.367-9.657a2.749,2.749,0,0,1,2.5,0L62.029,81.6a6.019,6.019,0,0,0,2.83.708,6.1,6.1,0,0,0,4.667-2.188,5.953,5.953,0,0,0,1.326-4.932L67.346,54.738a2.688,2.688,0,0,1,.774-2.378Z" transform="translate(320.561 746.244)" fill="#fff" opacity="0.1"/>
    <path id="star_3_2" data-name="star (3)" d="M42.489,19.9a3.115,3.115,0,0,0-1.727-5.313L30.246,13.063a1.374,1.374,0,0,1-1.035-.752l-4.7-9.528a3.115,3.115,0,0,0-5.586,0l-4.7,9.529a1.375,1.375,0,0,1-1.036.752L2.669,14.592A3.115,3.115,0,0,0,.942,19.905l7.609,7.417a1.377,1.377,0,0,1,.4,1.218l-1.8,10.473a3.049,3.049,0,0,0,.679,2.526,3.147,3.147,0,0,0,3.84.757l9.4-4.945a1.408,1.408,0,0,1,1.28,0L31.761,42.3a3.082,3.082,0,0,0,1.449.363,3.123,3.123,0,0,0,2.39-1.12,3.048,3.048,0,0,0,.679-2.526l-1.8-10.473a1.376,1.376,0,0,1,.4-1.218Z" transform="translate(339.254 766.07)" fill="#fff"/>
  </g>
</svg>
